<?xml version="1.0" standalone="no"?>
<svg xmlns="http://www.w3.org/2000/svg" viewBox="0 0 111.698 36" width="111.698" height="36"><g fill="#a16aff" color="#a16aff" transform="translate(0 6) scale(0.4705883)"><svg width="44.0" height="51.0" x="0.0" y="0.0" viewBox="0 0 44 51"><path fill="currentColor" fill-rule="evenodd" d="M21.986 0L44 12.704v25.393L22.029 50.801.014 38.111 0 12.718 21.986 0zM22 7.428L6.43 16.425V34.42l15.599 8.996 15.555-9.01-.014-17.994L22 7.428zm-.001 5.403l10.907 6.302v12.561l-10.907 6.302-10.893-6.288-.015-12.575L22 12.83z"></path></svg></g><path fill="#5e00ff" fill-rule="nonzero" d="M6.05 16.97L3.34 16.97Q3.24 16.97 3.24 16.85L3.24 16.85L3.24 3.17L0.12 3.17Q0 3.17 0 3.05L0 3.05L0.02 0.36Q0.02 0.26 0.12 0.26L0.12 0.26L9.24 0.26Q9.36 0.26 9.36 0.36L9.36 0.36L9.36 3.05Q9.36 3.17 9.26 3.17L9.26 3.17L6.12 3.17L6.14 16.85Q6.14 16.97 6.05 16.97L6.05 16.97ZM14.74 17.21L14.74 17.21Q13.44 17.21 12.37 16.55Q11.30 15.89 10.66 14.80Q10.01 13.70 10.01 12.38L10.01 12.38L10.03 4.78Q10.03 3.46 10.67 2.38Q11.30 1.30 12.38 0.65Q13.46 0 14.74 0L14.74 0Q16.03 0 17.09 0.65Q18.14 1.30 18.78 2.38Q19.42 3.46 19.42 4.78L19.42 4.78L19.44 12.38Q19.44 13.70 18.80 14.80Q18.17 15.89 17.10 16.55Q16.03 17.21 14.74 17.21ZM14.74 14.30L14.74 14.30Q15.46 14.30 16.00 13.72Q16.54 13.13 16.54 12.38L16.54 12.38L16.51 4.78Q16.51 3.98 16.01 3.43Q15.50 2.88 14.74 2.88L14.74 2.88Q13.99 2.88 13.46 3.42Q12.94 3.96 12.94 4.78L12.94 4.78L12.94 12.38Q12.94 13.18 13.46 13.74Q13.99 14.30 14.74 14.30ZM25.66 17.21L25.66 17.21Q24.36 17.21 23.30 16.56Q22.25 15.91 21.61 14.82Q20.98 13.73 20.98 12.38L20.98 12.38L20.98 4.78Q20.98 3.48 21.61 2.39Q22.25 1.30 23.32 0.65Q24.38 0 25.66 0L25.66 0Q26.98 0 28.04 0.64Q29.11 1.27 29.74 2.35Q30.36 3.43 30.36 4.78L30.36 4.78L30.36 5.88Q30.36 5.98 30.24 5.98L30.24 5.98L27.55 5.98Q27.46 5.98 27.46 5.88L27.46 5.88L27.46 4.97Q27.46 4.06 26.94 3.46Q26.42 2.86 25.66 2.86L25.66 2.86Q24.96 2.86 24.42 3.43Q23.88 4.01 23.88 4.78L23.88 4.78L23.88 12.38Q23.88 13.18 24.41 13.74Q24.94 14.30 25.66 14.30L25.66 14.30Q26.42 14.30 26.94 13.75Q27.46 13.20 27.46 12.38L27.46 12.38L27.46 11.21L25.78 11.21Q25.66 11.21 25.66 11.09L25.66 11.09L25.66 8.40Q25.66 8.28 25.78 8.28L25.78 8.28L30.26 8.28Q30.36 8.28 30.36 8.40L30.36 8.40L30.36 12.38Q30.36 13.73 29.72 14.82Q29.09 15.91 28.03 16.56Q26.98 17.21 25.66 17.21ZM39.91 16.97L32.16 16.97Q32.06 16.97 32.06 16.85L32.06 16.85L32.09 0.36Q32.09 0.26 32.18 0.26L32.18 0.26L39.89 0.26Q39.98 0.26 39.98 0.38L39.98 0.38L39.98 3.07Q39.98 3.17 39.89 3.17L39.89 3.17L34.97 3.17L34.97 6.91L39.89 6.91Q39.98 6.91 39.98 7.01L39.98 7.01L40.01 9.72Q40.01 9.82 39.91 9.82L39.91 9.82L34.97 9.82L34.97 14.02L39.91 14.02Q40.01 14.02 40.01 14.14L40.01 14.14L40.01 16.87Q40.01 16.97 39.91 16.97L39.91 16.97ZM47.26 16.97L44.54 16.97Q44.45 16.97 44.45 16.85L44.45 16.85L44.45 3.17L41.33 3.17Q41.21 3.17 41.21 3.05L41.21 3.05L41.23 0.36Q41.23 0.26 41.33 0.26L41.33 0.26L50.45 0.26Q50.57 0.26 50.57 0.36L50.57 0.36L50.57 3.05Q50.57 3.17 50.47 3.17L50.47 3.17L47.33 3.17L47.35 16.85Q47.35 16.97 47.26 16.97L47.26 16.97ZM54.55 16.97L51.84 16.97Q51.74 16.97 51.74 16.85L51.74 16.85L51.77 0.36Q51.77 0.26 51.89 0.26L51.89 0.26L54.55 0.26Q54.67 0.26 54.67 0.36L54.67 0.36L54.65 6.89L58.25 6.89L58.25 0.36Q58.25 0.26 58.34 0.26L58.34 0.26L61.01 0.26Q61.13 0.26 61.13 0.36L61.13 0.36L61.18 16.85Q61.18 16.97 61.06 16.97L61.06 16.97L58.37 16.97Q58.25 16.97 58.25 16.85L58.25 16.85L58.25 9.79L54.65 9.79L54.65 16.85Q54.65 16.97 54.55 16.97L54.55 16.97ZM70.99 16.97L63.24 16.97Q63.14 16.97 63.14 16.85L63.14 16.85L63.17 0.36Q63.17 0.26 63.26 0.26L63.26 0.26L70.97 0.26Q71.06 0.26 71.06 0.38L71.06 0.38L71.06 3.07Q71.06 3.17 70.97 3.17L70.97 3.17L66.05 3.17L66.05 6.91L70.97 6.91Q71.06 6.91 71.06 7.01L71.06 7.01L71.09 9.72Q71.09 9.82 70.99 9.82L70.99 9.82L66.05 9.82L66.05 14.02L70.99 14.02Q71.09 14.02 71.09 14.14L71.09 14.14L71.09 16.87Q71.09 16.97 70.99 16.97L70.99 16.97ZM76.03 16.97L73.32 16.97Q73.22 16.97 73.22 16.85L73.22 16.85L73.27 0.36Q73.27 0.26 73.37 0.26L73.37 0.26L78.22 0.26Q79.51 0.26 80.60 0.90Q81.70 1.54 82.34 2.60Q82.99 3.67 82.99 5.02L82.99 5.02Q82.99 5.90 82.73 6.61Q82.46 7.32 82.10 7.81Q81.74 8.30 81.46 8.54L81.46 8.54Q82.75 9.98 82.75 11.93L82.75 11.93L82.78 16.85Q82.78 16.97 82.66 16.97L82.66 16.97L79.94 16.97Q79.85 16.97 79.85 16.90L79.85 16.90L79.85 11.93Q79.85 11.06 79.24 10.43Q78.62 9.79 77.74 9.79L77.74 9.79L76.15 9.79L76.13 16.85Q76.13 16.97 76.03 16.97L76.03 16.97ZM76.15 3.14L76.15 6.91L78.22 6.91Q78.96 6.91 79.54 6.36Q80.11 5.81 80.11 5.02L80.11 5.02Q80.11 4.25 79.55 3.70Q78.98 3.14 78.22 3.14L78.22 3.14L76.15 3.14Z" transform="translate(28.706, 9.516)"></path></svg>